<svg width="28" height="28" viewBox="0 0 28 28" fill="none" xmlns="http://www.w3.org/2000/svg">
<path fill-rule="evenodd" clip-rule="evenodd" d="M18.1407 5.45349C18.1407 6.52791 17.2616 7.40698 16.1872 7.40698C15.1128 7.40698 14.2337 6.52791 14.2337 5.45349C14.2337 4.37907 15.1128 3.5 16.1872 3.5C17.2616 3.5 18.1407 4.37907 18.1407 5.45349ZM13.6473 16.6861L12.6706 20.9837L5.83337 19.6163L6.22407 17.6628L11.0101 18.6395L12.5729 10.7279L10.8148 11.4116V14.7326H8.86128V10.1419L13.9404 7.99303C14.0869 7.99303 14.209 7.96861 14.331 7.94419C14.4531 7.91978 14.5752 7.89536 14.7217 7.89536C15.4055 7.89536 15.9915 8.28605 16.3822 8.8721L17.359 10.4349C18.1404 11.8023 19.7031 12.7791 21.559 12.7791V14.7326C19.4101 14.7326 17.4566 13.7558 16.1869 12.2907L15.6008 15.2209L17.652 17.1744V24.5H15.6985V18.6395L13.6473 16.6861Z" fill="#A6A6A6"/>
<path d="M12.6706 20.9837L12.6216 21.2289C12.7545 21.2555 12.8843 21.1713 12.9144 21.0391L12.6706 20.9837ZM13.6473 16.6861L13.8197 16.505C13.7546 16.443 13.6612 16.4207 13.5751 16.4467C13.489 16.4727 13.4235 16.5429 13.4035 16.6306L13.6473 16.6861ZM5.83337 19.6163L5.58823 19.5673C5.57523 19.6323 5.58858 19.6998 5.62536 19.755C5.66214 19.8101 5.71933 19.8484 5.78435 19.8614L5.83337 19.6163ZM6.22407 17.6628L6.27406 17.4178C6.20893 17.4046 6.14119 17.4178 6.0858 17.4545C6.03042 17.4913 5.99196 17.5486 5.97893 17.6138L6.22407 17.6628ZM11.0101 18.6395L10.9601 18.8845C11.0254 18.8978 11.0932 18.8846 11.1486 18.8477C11.2041 18.8108 11.2425 18.7533 11.2554 18.688L11.0101 18.6395ZM12.5729 10.7279L12.8182 10.7764C12.8358 10.6869 12.8034 10.5949 12.7335 10.5363C12.6636 10.4777 12.5673 10.4619 12.4823 10.4949L12.5729 10.7279ZM10.8148 11.4116L10.7242 11.1786C10.6281 11.216 10.5648 11.3085 10.5648 11.4116H10.8148ZM10.8148 14.7326V14.9826C10.9528 14.9826 11.0648 14.8706 11.0648 14.7326H10.8148ZM8.86128 14.7326H8.61128C8.61128 14.8706 8.72321 14.9826 8.86128 14.9826V14.7326ZM8.86128 10.1419L8.76387 9.91163C8.67138 9.95076 8.61128 10.0414 8.61128 10.1419H8.86128ZM13.9404 7.99303V7.74303C13.9069 7.74303 13.8738 7.74975 13.8429 7.76279L13.9404 7.99303ZM14.331 7.94419L14.3801 8.18934H14.3801L14.331 7.94419ZM16.3822 8.8721L16.5943 8.73954L16.5902 8.73343L16.3822 8.8721ZM17.359 10.4349L17.5762 10.3108L17.571 10.3024L17.359 10.4349ZM21.559 12.7791H21.809C21.809 12.641 21.697 12.5291 21.559 12.5291V12.7791ZM21.559 14.7326V14.9826C21.697 14.9826 21.809 14.8706 21.809 14.7326H21.559ZM16.1869 12.2907L16.3758 12.127C16.3133 12.0549 16.2152 12.0246 16.123 12.049C16.0308 12.0734 15.9604 12.1481 15.9417 12.2417L16.1869 12.2907ZM15.6008 15.2209L15.3557 15.1719C15.3389 15.256 15.3663 15.3428 15.4284 15.402L15.6008 15.2209ZM17.652 17.1744H17.902C17.902 17.106 17.8739 17.0406 17.8244 16.9934L17.652 17.1744ZM17.652 24.5V24.75C17.7901 24.75 17.902 24.6381 17.902 24.5H17.652ZM15.6985 24.5H15.4485C15.4485 24.6381 15.5604 24.75 15.6985 24.75V24.5ZM15.6985 18.6395H15.9485C15.9485 18.5711 15.9205 18.5057 15.8709 18.4585L15.6985 18.6395ZM16.1872 7.65698C17.3997 7.65698 18.3907 6.66598 18.3907 5.45349H17.8907C17.8907 6.38984 17.1235 7.15698 16.1872 7.15698V7.65698ZM13.9837 5.45349C13.9837 6.66598 14.9747 7.65698 16.1872 7.65698V7.15698C15.2508 7.15698 14.4837 6.38984 14.4837 5.45349H13.9837ZM16.1872 3.25C14.9747 3.25 13.9837 4.241 13.9837 5.45349H14.4837C14.4837 4.51714 15.2508 3.75 16.1872 3.75V3.25ZM18.3907 5.45349C18.3907 4.241 17.3997 3.25 16.1872 3.25V3.75C17.1235 3.75 17.8907 4.51714 17.8907 5.45349H18.3907ZM12.9144 21.0391L13.8911 16.7415L13.4035 16.6306L12.4268 20.9283L12.9144 21.0391ZM5.78435 19.8614L12.6216 21.2289L12.7196 20.7386L5.8824 19.3711L5.78435 19.8614ZM5.97893 17.6138L5.58823 19.5673L6.07852 19.6653L6.46922 17.7118L5.97893 17.6138ZM11.0601 18.3946L6.27406 17.4178L6.17408 17.9078L10.9601 18.8845L11.0601 18.3946ZM12.3276 10.6795L10.7649 18.5911L11.2554 18.688L12.8182 10.7764L12.3276 10.6795ZM10.9054 11.6446L12.6635 10.9609L12.4823 10.4949L10.7242 11.1786L10.9054 11.6446ZM11.0648 14.7326V11.4116H10.5648V14.7326H11.0648ZM8.86128 14.9826H10.8148V14.4826H8.86128V14.9826ZM8.61128 10.1419V14.7326H9.11128V10.1419H8.61128ZM13.8429 7.76279L8.76387 9.91163L8.95869 10.3721L14.0378 8.22327L13.8429 7.76279ZM14.282 7.69905C14.1588 7.7237 14.0591 7.74303 13.9404 7.74303V8.24303C14.1146 8.24303 14.2591 8.21353 14.3801 8.18934L14.282 7.69905ZM14.7217 7.64536C14.5475 7.64536 14.403 7.67486 14.282 7.69905L14.3801 8.18934C14.5033 8.16469 14.603 8.14536 14.7217 8.14536V7.64536ZM16.5902 8.73343C16.1654 8.09615 15.5089 7.64536 14.7217 7.64536V8.14536C15.302 8.14536 15.8177 8.47596 16.1742 9.01078L16.5902 8.73343ZM17.571 10.3024L16.5942 8.7396L16.1702 9.0046L17.147 10.5674L17.571 10.3024ZM21.559 12.5291C19.7917 12.5291 18.3123 11.5994 17.576 10.3109L17.1419 10.5589C17.9684 12.0053 19.6146 13.0291 21.559 13.0291V12.5291ZM21.809 14.7326V12.7791H21.309V14.7326H21.809ZM15.9979 12.4544C17.3132 13.972 19.3346 14.9826 21.559 14.9826V14.4826C19.4856 14.4826 17.6001 13.5396 16.3758 12.127L15.9979 12.4544ZM15.846 15.27L16.432 12.3397L15.9417 12.2417L15.3557 15.1719L15.846 15.27ZM17.8244 16.9934L15.7732 15.0399L15.4284 15.402L17.4796 17.3555L17.8244 16.9934ZM17.902 24.5V17.1744H17.402V24.5H17.902ZM15.6985 24.75H17.652V24.25H15.6985V24.75ZM15.4485 18.6395V24.5H15.9485V18.6395H15.4485ZM13.4749 16.8671L15.5261 18.8206L15.8709 18.4585L13.8197 16.505L13.4749 16.8671Z" fill="#A6A6A6"/>
</svg>
