<svg width="28" height="28" viewBox="0 0 28 28" fill="none" xmlns="http://www.w3.org/2000/svg">
<path d="M15.6664 6.64882C15.6664 7.56929 14.9202 8.31548 13.9997 8.31548C13.0792 8.31548 12.333 7.56929 12.333 6.64882C12.333 5.72833 13.0792 4.98215 13.9997 4.98215C14.9202 4.98215 15.6664 5.72833 15.6664 6.64882Z" stroke="#A6A6A6" stroke-width="1.5" stroke-linecap="round" stroke-linejoin="round"/>
<path d="M14 8.31537V11.5297" stroke="#A6A6A6" stroke-width="1.5" stroke-linecap="round" stroke-linejoin="round"/>
<path d="M16.5 19.3571C16.5 19.3571 15.7143 20.1904 14 20.1904C12.2857 20.1904 11.5 19.3571 11.5 19.3571" stroke="#A6A6A6" stroke-width="1.5" stroke-linecap="round" stroke-linejoin="round"/>
<path d="M11.2019 16.2021C11.0046 16.2021 10.8447 16.0423 10.8447 15.845C10.8447 15.6478 11.0046 15.4879 11.2019 15.4879" stroke="#A6A6A6" stroke-width="1.5" stroke-linecap="round" stroke-linejoin="round"/>
<path d="M11.2021 16.2021C11.3994 16.2021 11.5593 16.0423 11.5593 15.845C11.5593 15.6478 11.3994 15.4879 11.2021 15.4879" stroke="#A6A6A6" stroke-width="1.5" stroke-linecap="round" stroke-linejoin="round"/>
<path d="M16.7976 16.2021C16.6003 16.2021 16.4404 16.0423 16.4404 15.845C16.4404 15.6478 16.6003 15.4879 16.7976 15.4879" stroke="#A6A6A6" stroke-width="1.5" stroke-linecap="round" stroke-linejoin="round"/>
<path d="M16.7979 16.2021C16.9951 16.2021 17.155 16.0423 17.155 15.845C17.155 15.6478 16.9951 15.4879 16.7979 15.4879" stroke="#A6A6A6" stroke-width="1.5" stroke-linecap="round" stroke-linejoin="round"/>
<path d="M6.14258 20.1607V14.4464C6.14258 12.8685 7.42176 11.5893 8.99972 11.5893H18.9997C20.5777 11.5893 21.8569 12.8685 21.8569 14.4464V20.1607C21.8569 21.7387 20.5777 23.0179 18.9997 23.0179H8.99972C7.42176 23.0179 6.14258 21.7387 6.14258 20.1607Z" stroke="#A6A6A6" stroke-width="1.5" stroke-linecap="round" stroke-linejoin="round"/>
</svg>
