<svg width="28" height="28" viewBox="0 0 28 28" fill="none" xmlns="http://www.w3.org/2000/svg">
<path d="M15.6666 6.64909C15.6666 7.56956 14.9204 8.31575 13.9999 8.31575C13.0795 8.31575 12.3333 7.56956 12.3333 6.64909C12.3333 5.72861 13.0795 4.98242 13.9999 4.98242C14.9204 4.98242 15.6666 5.72861 15.6666 6.64909Z" stroke="white" stroke-width="1.5" stroke-linecap="round" stroke-linejoin="round"/>
<path d="M14 8.31543V11.5297" stroke="white" stroke-width="1.5" stroke-linecap="round" stroke-linejoin="round"/>
<path d="M6.14282 20.1613V14.447C6.14282 12.869 7.42201 11.5898 8.99997 11.5898H19C20.578 11.5898 21.8571 12.869 21.8571 14.447V20.1613C21.8571 21.7393 20.578 23.0184 19 23.0184H8.99997C7.42201 23.0184 6.14282 21.7393 6.14282 20.1613Z" fill="white" stroke="white" stroke-width="1.5" stroke-linecap="round" stroke-linejoin="round"/>
<path d="M16.5 19.3574C16.5 19.3574 15.7143 20.1907 14 20.1907C12.2857 20.1907 11.5 19.3574 11.5 19.3574" stroke="#121212" stroke-width="1.5" stroke-linecap="round" stroke-linejoin="round"/>
<path d="M11.2024 16.2026C11.0051 16.2026 10.8452 16.0427 10.8452 15.8454C10.8452 15.6482 11.0051 15.4883 11.2024 15.4883" stroke="#121212" stroke-width="1.5" stroke-linecap="round" stroke-linejoin="round"/>
<path d="M11.2024 16.2026C11.3996 16.2026 11.5595 16.0427 11.5595 15.8454C11.5595 15.6482 11.3996 15.4883 11.2024 15.4883" stroke="#121212" stroke-width="1.5" stroke-linecap="round" stroke-linejoin="round"/>
<path d="M16.7976 16.2026C16.6003 16.2026 16.4404 16.0427 16.4404 15.8454C16.4404 15.6482 16.6003 15.4883 16.7976 15.4883" stroke="#121212" stroke-width="1.5" stroke-linecap="round" stroke-linejoin="round"/>
<path d="M16.7976 16.2026C16.9949 16.2026 17.1548 16.0427 17.1548 15.8454C17.1548 15.6482 16.9949 15.4883 16.7976 15.4883" stroke="#121212" stroke-width="1.5" stroke-linecap="round" stroke-linejoin="round"/>
</svg>
