<svg width="48" height="48" viewBox="0 0 48 48" fill="none" xmlns="http://www.w3.org/2000/svg">
<path d="M24 48C37.2548 48 48 37.2548 48 24C48 10.7452 37.2548 0 24 0C10.7452 0 0 10.7452 0 24C0 37.2548 10.7452 48 24 48Z" fill="#F9DB00"/>
<path d="M24.0026 12.2734C17.3765 12.2734 11.9922 16.8647 11.9922 22.5204C12.107 26.1621 14.1939 29.4595 17.4496 31.1082L16.3226 36.1482L21.7383 32.59C22.4896 32.7152 23.2409 32.7778 24.0026 32.7778C30.6287 32.7778 36.0131 28.1865 36.0131 22.5308C36.0131 16.8752 30.6391 12.2839 24.0026 12.2839" fill="#210D0D"/>
<rect x="32" y="32" width="16" height="16" rx="8" fill="#1A4FFF"/>
<path d="M37 40L39 42L43 38" stroke="white" stroke-linecap="round" stroke-linejoin="round"/>
</svg>
