<svg width="600" height="630" viewBox="0 0 600 630" fill="none" xmlns="http://www.w3.org/2000/svg">
<path d="M292.191 41.4049L299.566 56.929C299.731 57.3216 299.993 57.6615 300.324 57.9136C300.656 58.1659 301.045 58.3216 301.453 58.3648L317.833 60.9671C318.301 61.0308 318.743 61.2328 319.105 61.5493C319.469 61.8659 319.737 62.2838 319.881 62.7545C320.025 63.2251 320.038 63.7289 319.918 64.2069C319.799 64.6849 319.551 65.1175 319.206 65.4538L307.113 77.4783C306.933 77.8381 306.839 78.2385 306.839 78.6448C306.839 79.0512 306.933 79.4515 307.113 79.8114L309.429 96.8613C309.528 97.3539 309.488 97.8658 309.314 98.3354C309.14 98.8049 308.84 99.2117 308.449 99.5059C308.059 99.8002 307.595 99.9699 307.114 99.9948C306.634 100.019 306.157 99.8961 305.741 99.6425L291.162 91.5666C290.784 91.3885 290.375 91.2963 289.961 91.2963C289.547 91.2963 289.138 91.3885 288.76 91.5666L274.181 99.6425C273.766 99.8961 273.288 100.019 272.808 99.9948C272.327 99.9699 271.863 99.8002 271.473 99.5059C271.083 99.2117 270.782 98.8049 270.608 98.3354C270.435 97.8658 270.395 97.3539 270.493 96.8613L273.238 79.8114C273.356 79.4157 273.378 78.9955 273.304 78.5884C273.229 78.1814 273.059 77.7999 272.809 77.4783L260.717 65.3641C260.396 65.0241 260.171 64.5983 260.066 64.1334C259.961 63.6684 259.981 63.1823 260.122 62.7281C260.264 62.274 260.522 61.8695 260.869 61.5588C261.216 61.2482 261.638 61.0435 262.089 60.9671L278.469 58.4545C278.877 58.4113 279.266 58.2557 279.598 58.0034C279.929 57.7512 280.191 57.4114 280.356 57.0187L287.731 41.4947C287.929 41.0552 288.24 40.6823 288.629 40.418C289.018 40.1538 289.471 40.0088 289.934 39.9995C290.398 39.9902 290.856 40.1168 291.254 40.3652C291.653 40.6136 291.978 40.9737 292.191 41.4049Z" fill="#1A4FFF"/>
</svg>
