<svg width="120" height="126" viewBox="0 0 120 126" fill="none" xmlns="http://www.w3.org/2000/svg">
<path d="M2.35404 89.2164C1.19351 88.1989 -0.527543 89.5122 0.155351 90.8965C12.4317 115.692 40.154 130.32 68.6856 124.865C102.961 118.311 125.425 85.2567 118.861 51.0354C113.397 22.5485 89.5396 2.23348 61.9277 0.00517361C60.3882 -0.117088 59.8001 1.96135 61.1777 2.66337C75.1869 9.80184 85.8646 23.0928 89.054 39.7085C94.5369 68.2979 75.7711 95.9092 47.1369 101.387C30.4948 104.57 14.1804 99.5731 2.35798 89.2164H2.35404Z" fill="url(#paint0_linear_1255_17091)"/>
<path d="M58.4383 8.28118L59.9134 11.3861C59.9464 11.4646 59.9987 11.5326 60.065 11.583C60.1313 11.6335 60.2092 11.6646 60.2907 11.6732L63.5668 12.1937C63.6604 12.2064 63.7487 12.2468 63.8212 12.3101C63.8938 12.3735 63.9476 12.4571 63.9763 12.5512C64.0051 12.6453 64.0077 12.7461 63.9838 12.8417C63.96 12.9373 63.9104 13.0238 63.8413 13.0911L61.4228 15.496C61.3867 15.568 61.3679 15.648 61.3679 15.7293C61.3679 15.8106 61.3867 15.8907 61.4228 15.9626L61.8859 19.3727C61.9056 19.4712 61.8976 19.5736 61.8629 19.6675C61.8281 19.7614 61.768 19.8428 61.6899 19.9016C61.6119 19.9605 61.5192 19.9944 61.423 19.9994C61.3269 20.0042 61.2315 19.9797 61.1483 19.9289L58.2325 18.3137C58.157 18.2781 58.0751 18.2597 57.9923 18.2597C57.9095 18.2597 57.8277 18.2781 57.7522 18.3137L54.8363 19.9289C54.7532 19.9797 54.6578 20.0042 54.5617 19.9994C54.4655 19.9944 54.3728 19.9605 54.2947 19.9016C54.2166 19.8428 54.1566 19.7614 54.1218 19.6675C54.087 19.5736 54.079 19.4712 54.0988 19.3727L54.6476 15.9626C54.6713 15.8835 54.6758 15.7995 54.6608 15.718C54.6458 15.6366 54.6119 15.5603 54.5619 15.496L52.1434 13.0731C52.0793 13.0051 52.0342 12.92 52.0133 12.827C51.9923 12.734 51.9962 12.6368 52.0246 12.5459C52.0529 12.4551 52.1046 12.3742 52.174 12.312C52.2434 12.2499 52.3277 12.209 52.4179 12.1937L55.6939 11.6912C55.7755 11.6825 55.8534 11.6514 55.9197 11.601C55.986 11.5505 56.0383 11.4825 56.0713 11.404L57.5464 8.29914C57.5858 8.21124 57.648 8.13666 57.7259 8.0838C57.8038 8.03096 57.8942 8.00196 57.987 8.0001C58.0798 7.99823 58.1712 8.02356 58.251 8.07325C58.3307 8.12291 58.3956 8.19494 58.4383 8.28118Z" fill="#3069FF"/>
<path d="M49.2191 27.1406L49.9567 28.693C49.9732 28.7323 49.9993 28.7663 50.0325 28.7915C50.0656 28.8167 50.1046 28.8323 50.1454 28.8366L51.7834 29.0968C51.8302 29.1032 51.8744 29.1234 51.9106 29.1551C51.9469 29.1867 51.9738 29.2285 51.9882 29.2756C52.0025 29.3227 52.0039 29.373 51.9919 29.4208C51.98 29.4686 51.9552 29.5119 51.9206 29.5455L50.7114 30.748C50.6934 30.784 50.6839 30.824 50.6839 30.8647C50.6839 30.9053 50.6934 30.9453 50.7114 30.9813L50.9429 32.6863C50.9528 32.7356 50.9488 32.7868 50.9314 32.8338C50.914 32.8807 50.884 32.9214 50.845 32.9508C50.8059 32.9802 50.7596 32.9972 50.7115 32.9997C50.6634 33.0021 50.6157 32.9898 50.5742 32.9645L49.1162 32.1569C49.0785 32.1391 49.0376 32.1298 48.9962 32.1298C48.9548 32.1298 48.9138 32.1391 48.8761 32.1569L47.4182 32.9645C47.3766 32.9898 47.3289 33.0021 47.2808 32.9997C47.2328 32.9972 47.1864 32.9802 47.1474 32.9508C47.1083 32.9214 47.0783 32.8807 47.0609 32.8338C47.0435 32.7868 47.0395 32.7356 47.0494 32.6863L47.3238 30.9813C47.3356 30.9417 47.3379 30.8997 47.3304 30.859C47.3229 30.8183 47.3059 30.7802 47.2809 30.748L46.0717 29.5366C46.0396 29.5026 46.0171 29.46 46.0066 29.4135C45.9962 29.367 45.9981 29.3184 46.0123 29.273C46.0265 29.2275 46.0523 29.1871 46.087 29.156C46.1217 29.125 46.1639 29.1045 46.2089 29.0968L47.847 28.8456C47.8877 28.8413 47.9267 28.8257 47.9598 28.8005C47.993 28.7753 48.0192 28.7413 48.0356 28.702L48.7732 27.1496C48.7929 27.1056 48.824 27.0683 48.8629 27.0419C48.9019 27.0155 48.9471 27.001 48.9935 27C49.0399 26.9991 49.0856 27.0118 49.1255 27.0366C49.1654 27.0615 49.1978 27.0975 49.2191 27.1406Z" fill="#3069FF"/>
<defs>
<linearGradient id="paint0_linear_1255_17091" x1="60.0001" y1="0" x2="60.0001" y2="126.003" gradientUnits="userSpaceOnUse">
<stop stop-color="#5080FF"/>
<stop offset="1" stop-color="#0046FF"/>
</linearGradient>
</defs>
</svg>
