<svg width="600" height="630" viewBox="0 0 600 630" fill="none" xmlns="http://www.w3.org/2000/svg">
<path d="M246.095 135.7L249.783 143.462C249.865 143.658 249.996 143.828 250.162 143.954C250.328 144.081 250.522 144.158 250.726 144.18L258.916 145.481C259.15 145.513 259.371 145.614 259.552 145.772C259.734 145.931 259.868 146.139 259.94 146.375C260.012 146.61 260.019 146.862 259.959 147.101C259.899 147.34 259.775 147.556 259.603 147.724L253.556 153.737C253.466 153.917 253.419 154.117 253.419 154.32C253.419 154.523 253.466 154.723 253.556 154.903L254.714 163.428C254.764 163.675 254.744 163.93 254.657 164.165C254.57 164.4 254.42 164.603 254.224 164.751C254.029 164.898 253.797 164.983 253.557 164.995C253.317 165.007 253.078 164.946 252.87 164.819L245.581 160.781C245.392 160.692 245.187 160.646 244.98 160.646C244.773 160.646 244.569 160.692 244.38 160.781L237.09 164.819C236.883 164.946 236.644 165.007 236.404 164.995C236.163 164.983 235.931 164.898 235.736 164.751C235.541 164.603 235.391 164.4 235.304 164.165C235.217 163.93 235.197 163.675 235.246 163.428L236.619 154.903C236.678 154.705 236.689 154.495 236.652 154.292C236.614 154.088 236.529 153.898 236.404 153.737L230.358 147.68C230.198 147.51 230.085 147.297 230.033 147.064C229.98 146.832 229.99 146.589 230.061 146.362C230.132 146.135 230.261 145.932 230.434 145.777C230.608 145.622 230.819 145.519 231.044 145.481L239.234 144.225C239.438 144.203 239.633 144.125 239.799 143.999C239.964 143.873 240.095 143.703 240.178 143.507L243.865 135.745C243.964 135.525 244.12 135.339 244.314 135.207C244.509 135.074 244.735 135.002 244.967 134.997C245.199 134.993 245.428 135.056 245.627 135.18C245.826 135.304 245.989 135.484 246.095 135.7Z" fill="#1A4FFF"/>
</svg>
